<?xml version="1.0" encoding="UTF-8"?>
<svg version="1.1" xmlns="http://www.w3.org/2000/svg" width="191" height="135">
<path d="M0 0 C9.24 0 18.48 0 28 0 C28 8.91 28 17.82 28 27 C36.91 27 45.82 27 55 27 C55 35.91 55 44.82 55 54 C63.58 54 72.16 54 81 54 C81 45.09 81 36.18 81 27 C89.91 27 98.82 27 108 27 C108 18.09 108 9.18 108 0 C117.24 0 126.48 0 136 0 C136 35.64 136 71.28 136 108 C145.24 108 154.48 108 164 108 C164 116.91 164 125.82 164 135 C136.61 135 109.22 135 81 135 C81 126.42 81 117.84 81 109 C72.42 109 63.84 109 55 109 C55 117.58 55 126.16 55 135 C27.94 135 0.88 135 -27 135 C-27 126.09 -27 117.18 -27 108 C-18.09 108 -9.18 108 0 108 C0 72.36 0 36.72 0 0 Z M28 82 C28 90.58 28 99.16 28 108 C36.58 108 45.16 108 54 108 C54 99.42 54 90.84 54 82 C45.42 82 36.84 82 28 82 Z M82 82 C82 90.58 82 99.16 82 108 C90.58 108 99.16 108 108 108 C108 99.42 108 90.84 108 82 C99.42 82 90.84 82 82 82 Z " fill="#FF8204" transform="translate(27,0)"/>
<path d="M0 0 C9.24 0 18.48 0 28 0 C28 17.82 28 35.64 28 54 C9.85 54 -8.3 54 -27 54 C-27 45.09 -27 36.18 -27 27 C-18.09 27 -9.18 27 0 27 C0 18.09 0 9.18 0 0 Z " fill="#FFAF00" transform="translate(135,0)"/>
<path d="M0 0 C9.24 0 18.48 0 28 0 C28 8.91 28 17.82 28 27 C36.91 27 45.82 27 55 27 C55 35.91 55 44.82 55 54 C36.85 54 18.7 54 0 54 C0 36.18 0 18.36 0 0 Z " fill="#FFAF00" transform="translate(27,0)"/>
<path d="M0 0 C0.76316528 0.00359528 1.52633057 0.00719055 2.31262207 0.01089478 C3.51253029 0.01067574 3.51253029 0.01067574 4.73667908 0.01045227 C7.39344958 0.01115161 10.05015086 0.01894498 12.70690918 0.02676392 C14.54393984 0.02862802 16.38097099 0.03005196 18.21800232 0.03105164 C23.06284955 0.03487742 27.90766701 0.04470821 32.75250244 0.05575562 C37.69237871 0.06596845 42.63225978 0.07054898 47.57214355 0.07559204 C57.27202856 0.08633043 66.97188362 0.10392771 76.67175293 0.12442017 C76.67175293 9.03442017 76.67175293 17.94442017 76.67175293 27.12442017 C49.28175293 27.12442017 21.89175293 27.12442017 -6.32824707 27.12442017 C-6.32824707 0.01258321 -6.32824707 0.01258321 0 0 Z " fill="#E10500" transform="translate(114.3282470703125,107.87557983398438)"/>
<path d="M0 0 C27.06 0 54.12 0 82 0 C82 8.91 82 17.82 82 27 C54.94 27 27.88 27 0 27 C0 18.09 0 9.18 0 0 Z " fill="#E10500" transform="translate(0,108)"/>
<path d="M0 0 C9.24 0 18.48 0 28 0 C28 9.24 28 18.48 28 28 C23.565625 28.020625 19.13125 28.04125 14.5625 28.0625 C13.16201416 28.071604 11.76152832 28.08070801 10.31860352 28.09008789 C9.22475342 28.09258545 8.13090332 28.09508301 7.00390625 28.09765625 C5.87799072 28.10289307 4.7520752 28.10812988 3.59204102 28.11352539 C1 28 1 28 0 27 C-0.08758003 25.00035018 -0.10696576 22.9976389 -0.09765625 20.99609375 C-0.09515869 19.90224365 -0.09266113 18.80839355 -0.09008789 17.68139648 C-0.08098389 16.28091064 -0.07187988 14.8804248 -0.0625 13.4375 C-0.041875 9.003125 -0.02125 4.56875 0 0 Z " fill="#F9500E" transform="translate(81,81)"/>
<path d="M0 0 C9.24 0 18.48 0 28 0 C28 8.91 28 17.82 28 27 C18.76 27 9.52 27 0 27 C0 18.09 0 9.18 0 0 Z " fill="#FA500E" transform="translate(27,81)"/>
<path d="M0 0 C9.24 0 18.48 0 28 0 C28 8.91 28 17.82 28 27 C18.76 27 9.52 27 0 27 C0 18.09 0 9.18 0 0 Z " fill="#FFD700" transform="translate(135,0)"/>
<path d="M0 0 C9.24 0 18.48 0 28 0 C28 8.91 28 17.82 28 27 C18.76 27 9.52 27 0 27 C0 18.09 0 9.18 0 0 Z " fill="#FFD700" transform="translate(27,0)"/>
<path d="M0 0 C1.12591553 0.00523682 2.25183105 0.01047363 3.41186523 0.01586914 C4.50571533 0.0183667 5.59956543 0.02086426 6.7265625 0.0234375 C8.82729126 0.03709351 8.82729126 0.03709351 10.97045898 0.05102539 C17.62202148 0.08196289 17.62202148 0.08196289 24.40795898 0.11352539 C24.40795898 9.02352539 24.40795898 17.93352539 24.40795898 27.11352539 C15.16795898 27.11352539 5.92795898 27.11352539 -3.59204102 27.11352539 C-3.61266602 22.84415039 -3.63329102 18.57477539 -3.65454102 14.17602539 C-3.66364502 12.82774658 -3.67274902 11.47946777 -3.68212891 10.09033203 C-3.68462646 9.0370874 -3.68712402 7.98384277 -3.68969727 6.89868164 C-3.69493408 5.81466064 -3.7001709 4.73063965 -3.70556641 3.61376953 C-3.55003792 0.18846362 -3.43345705 0.15037746 0 0 Z " fill="#F9500E" transform="translate(138.592041015625,80.886474609375)"/>
</svg>
