<?xml version="1.0" encoding="UTF-8"?>
<svg version="1.1" xmlns="http://www.w3.org/2000/svg" width="1024" height="1024">
<path d="M0 0 C2.18094167 1.13482452 4.29859661 2.34453439 6.41552734 3.59472656 C7.19371826 4.04227295 7.97190918 4.48981934 8.77368164 4.95092773 C10.40241137 5.89042171 12.02778399 6.83575753 13.64990234 7.78662109 C16.05058798 9.1890917 18.46488408 10.56467871 20.88427734 11.93457031 C22.39524763 12.79948929 23.90568531 13.66533955 25.41552734 14.53222656 C26.11395752 14.92780762 26.8123877 15.32338867 27.53198242 15.73095703 C31.62531492 18.11819214 35.29932357 20.32189449 38.10302734 24.21972656 C38.95996829 27.8740426 39.03406587 31.47674442 39.10302734 35.21972656 C39.13444824 36.43466797 39.16586914 37.64960938 39.19824219 38.90136719 C39.26006216 42.23881584 39.28872847 45.57192553 39.28833008 48.90966797 C39.29053902 50.98067129 39.30883689 53.05115901 39.32763672 55.12207031 C39.33056804 56.46191228 39.33255458 57.80175672 39.33349609 59.14160156 C39.33760498 60.33366211 39.34171387 61.52572266 39.34594727 62.75390625 C38.99716219 67.73014029 38.29956033 71.84723284 34.97802734 75.65722656 C32.87330819 78.53367607 32.3957819 80.59445632 32.59130859 84.16113281 C33.73123702 88.74695174 36.97886599 91.83688326 40.84912109 94.35644531 C44.99116214 96.39517821 47.73431439 96.35100426 52.10302734 95.21972656 C55.53580836 93.49609772 58.76486172 91.42743479 62.00537109 89.37011719 C67.01606351 86.36273629 70.24816957 85.45102362 76.10302734 86.21972656 C78.77547086 87.2284016 81.11724269 88.59230869 83.54052734 90.09472656 C84.55336792 90.69559082 84.55336792 90.69559082 85.58666992 91.30859375 C87.02119804 92.16071037 88.45171557 93.0196102 89.87841797 93.88476562 C92.14852338 95.24702818 94.44071588 96.56226589 96.74365234 97.86816406 C98.25950117 98.73496026 99.77513209 99.60213764 101.29052734 100.46972656 C102.35001587 101.06889893 102.35001587 101.06889893 103.4309082 101.68017578 C107.61805277 104.11734096 110.8289128 106.64348092 114.10302734 110.21972656 C114.43302734 110.54972656 114.76302734 110.87972656 115.10302734 111.21972656 C115.22186171 112.62984492 115.27306325 114.04576087 115.29589844 115.46069336 C115.31196136 116.36220627 115.32802429 117.26371918 115.34457397 118.19255066 C115.388955 122.33465958 115.43011745 126.47660523 115.453125 130.61889648 C115.46965959 132.80227333 115.49691638 134.9855966 115.53515625 137.16870117 C115.5900055 140.31490194 115.61181491 143.45983035 115.62646484 146.60644531 C115.64913422 147.57853439 115.67180359 148.55062347 115.69515991 149.5521698 C115.68170686 153.88198345 115.65514592 157.16114023 112.91137695 160.65234375 C110.25067413 163.08474842 107.72133236 165.03892211 104.64599609 166.91113281 C103.61539063 167.54599609 102.58478516 168.18085938 101.52294922 168.83496094 C100.45625 169.47755859 99.38955078 170.12015625 98.29052734 170.78222656 C97.23542969 171.42869141 96.18033203 172.07515625 95.09326172 172.74121094 C93.03403906 174.00240463 90.9701866 175.25607587 88.90136719 176.50146484 C87.19107803 177.55163193 85.49826393 178.63190512 83.83984375 179.76220703 C79.47289896 182.73360729 75.51969213 184.85033512 70.10302734 184.21972656 C67.13553449 183.06526927 64.57111165 181.46300966 61.91552734 179.71972656 C57.0103092 176.3408238 57.0103092 176.3408238 51.35302734 175.21191406 C48.70465206 176.39816549 47.25016766 177.70768723 45.29052734 179.84472656 C42.73024681 182.53850403 40.17301103 185.11091001 37.35302734 187.53222656 C21.8323929 199.75910614 21.8323929 199.75910614 14.86474609 217.35644531 C14.67045634 226.65167601 15.8218652 233.06783635 21.41552734 240.53222656 C26.69683782 245.81353704 32.23162861 247.80081619 39.35302734 249.28222656 C46.45844011 250.76684292 46.45844011 250.76684292 49.06005859 252.59472656 C50.95645805 255.54941636 50.7272264 258.8906649 50.10302734 262.21972656 C48.2328764 264.65092279 46.82164389 265.86041829 44.10302734 267.21972656 C29.80411375 267.3344851 18.21820816 262.07931476 7.85302734 252.46972656 C1.5905046 245.93329626 -1.35728316 237.76794975 -3.89697266 229.21972656 C-6.92361089 235.81562741 -7.05613589 243.54417142 -4.83447266 250.46972656 C-3.48760127 253.61242645 -1.5927198 255.78992522 0.72802734 258.28222656 C4.00108356 261.81879155 5.29116065 264.23419386 5.10302734 269.21972656 C3.75740335 272.16728388 3.0174819 273.76249928 0.10302734 275.21972656 C-3.06374063 275.82292046 -5.08477551 275.72128257 -7.85791016 274.00878906 C-16.05998397 267.31514262 -21.5676487 257.51086404 -23.89697266 247.21972656 C-25.22995729 233.11105778 -22.52156438 222.44265263 -13.89697266 211.21972656 C-8.56602468 205.33264392 -2.76330904 199.98367226 3.27490234 194.82910156 C5.13240723 193.19386222 6.86908744 191.48490863 8.60302734 189.71972656 C11.52945879 186.74736458 14.5947366 184.01018209 17.75146484 181.28613281 C20.6630923 178.72757646 23.50902287 176.10297111 26.35302734 173.46972656 C26.90418213 172.96046631 27.45533691 172.45120605 28.02319336 171.92651367 C30.84566618 169.3166565 33.66048171 166.69903334 36.46630859 164.07128906 C37.53266466 163.07904762 38.59906897 162.08685803 39.66552734 161.09472656 C40.61556641 160.20527344 41.56560547 159.31582031 42.54443359 158.39941406 C47.0517291 154.55961118 50.45517967 153.62881641 56.31396484 153.68066406 C60.74531532 154.53714357 63.85127077 157.05106022 67.36474609 159.78613281 C71.18661778 161.78702712 72.96741355 161.39575105 77.10302734 160.21972656 C80.21480861 158.59994885 83.08539846 156.69968116 85.97802734 154.71972656 C86.74888672 154.20796875 87.51974609 153.69621094 88.31396484 153.16894531 C91.87919511 150.90987365 91.87919511 150.90987365 95.10302734 148.21972656 C96.47439384 139.51373299 97.34340695 129.81033017 95.10302734 121.21972656 C91.42615904 116.18682658 85.76625942 113.89386336 80.00415039 111.9362793 C78.10302734 111.21972656 78.10302734 111.21972656 75.10302734 109.21972656 C67.2537821 109.21972656 60.85779798 113.87164233 54.39208984 117.91503906 C52.10302734 119.21972656 52.10302734 119.21972656 50.10302734 119.21972656 C49.99087891 121.10304688 49.99087891 121.10304688 49.87646484 123.02441406 C48.54185848 141.51666064 41.69546862 149.21566677 28.20458984 161.32373047 C25.57034937 163.70030012 22.97972517 166.12113397 20.39038086 168.54638672 C16.36857757 172.3116428 12.33818294 176.05887195 8.16552734 179.65722656 C2.27789896 184.75059245 -3.37139006 190.10589564 -9.02050781 195.46044922 C-10.74362516 197.0759558 -12.4922012 198.65665993 -14.25244141 200.23144531 C-24.87209532 209.9575949 -31.95804409 222.53122581 -33.23291016 237.04394531 C-33.38910203 252.49132189 -29.56062993 265.64057636 -18.52197266 276.90722656 C-16.26488706 279.08767089 -13.99898509 281.13869181 -11.54150391 283.09082031 C-6.056247 287.44990058 -6.056247 287.44990058 -5.14697266 291.84472656 C-6.04004252 295.86354094 -6.62513614 297.66609806 -9.89697266 300.21972656 C-15.29843919 301.14380638 -19.52207142 299.1460867 -23.95947266 296.21972656 C-38.36509203 285.1984258 -47.78451674 268.08944442 -50.57666016 250.21972656 C-52.60845007 231.1902796 -48.08166892 215.60735886 -36.58447266 200.46972656 C-33.5330868 196.34860199 -31.59648395 193.52836033 -31.89697266 188.21972656 C-33.12416394 180.76567579 -38.02149912 176.55759784 -43.89697266 172.21972656 C-47.31225559 170.0266819 -49.86444516 169.70493582 -53.89697266 170.21972656 C-57.00062083 171.56112122 -59.86825196 173.24397603 -62.77197266 174.96972656 C-65.80748457 176.73063061 -68.8492356 178.48007131 -71.89697266 180.21972656 C-72.95706543 180.84137695 -72.95706543 180.84137695 -74.03857422 181.47558594 C-77.23039758 183.23920874 -79.25138672 184.22220641 -82.94775391 184.20800781 C-86.57686081 182.99189649 -89.79667862 181.33409627 -93.08447266 179.40722656 C-93.7628418 179.01631836 -94.44121094 178.62541016 -95.14013672 178.22265625 C-100.86127374 174.89244216 -106.51905292 171.45475969 -112.14697266 167.96972656 C-113.36163208 167.22758911 -113.36163208 167.22758911 -114.60083008 166.47045898 C-115.36371338 165.99068604 -116.12659668 165.51091309 -116.91259766 165.01660156 C-117.58581055 164.59733398 -118.25902344 164.17806641 -118.95263672 163.74609375 C-122.13454401 161.24819265 -124.55746859 159.19309566 -125.27328491 155.03240967 C-125.44371477 152.29527112 -125.47747874 149.58716604 -125.46337891 146.84472656 C-125.46957748 145.8426416 -125.47577606 144.84055664 -125.48216248 143.80810547 C-125.48925373 141.69336924 -125.48609881 139.57857711 -125.47338867 137.46386719 C-125.45951844 134.2304 -125.49361065 130.99982467 -125.53173828 127.76660156 C-125.53268947 125.70930919 -125.53083067 123.6520132 -125.52587891 121.59472656 C-125.53913712 120.63002441 -125.55239532 119.66532227 -125.5660553 118.67138672 C-125.50198837 114.04806574 -125.44722469 111.92301195 -122.52416992 108.18701172 C-119.83227894 106.17128293 -117.15797663 104.32328303 -114.27197266 102.59472656 C-113.14791016 101.92054688 -112.02384766 101.24636719 -110.86572266 100.55175781 C-109.54348203 99.77326469 -108.22050168 98.99602724 -106.89697266 98.21972656 C-106.10162109 97.75099121 -105.30626953 97.28225586 -104.48681641 96.79931641 C-101.91836164 95.2881435 -99.34618653 93.78356633 -96.77197266 92.28222656 C-95.9422998 91.79737793 -95.11262695 91.3125293 -94.2578125 90.81298828 C-93.08532959 90.13453857 -93.08532959 90.13453857 -91.88916016 89.44238281 C-91.19161621 89.03769775 -90.49407227 88.6330127 -89.77539062 88.21606445 C-85.89623254 86.15850738 -82.19881392 85.38913426 -77.89697266 86.21972656 C-73.15716172 88.38276432 -68.71009028 91.09770759 -64.28369141 93.83691406 C-59.65795217 96.5459953 -59.65795217 96.5459953 -54.44775391 97.03613281 C-48.67064841 95.34597137 -44.96414518 92.27126695 -41.58447266 87.28222656 C-40.57236421 84.24590123 -40.40348532 82.42739424 -40.89697266 79.21972656 C-41.8287116 77.95423038 -42.81477677 76.72798505 -43.83447266 75.53222656 C-50.02189591 67.84234689 -48.08339689 55.89883077 -48.08227539 46.47485352 C-48.08448792 44.39286599 -48.10279544 42.31138841 -48.12158203 40.22949219 C-48.12451261 38.88639501 -48.12649965 37.54329536 -48.12744141 36.20019531 C-48.13155029 35.00289795 -48.13565918 33.80560059 -48.13989258 32.57202148 C-47.76630097 27.41645735 -46.81575096 24.20413188 -43.27197266 20.40722656 C-38.9128813 16.92177356 -33.98741328 14.36210534 -29.10473633 11.69506836 C-23.5898479 8.67073346 -18.41969704 5.34311013 -13.25244141 1.75097656 C-9.04142161 -0.98653548 -4.77873215 -1.96561492 0 0 Z M-9.61181641 22.98535156 C-10.29824219 23.38109375 -10.98466797 23.77683594 -11.69189453 24.18457031 C-12.39894531 24.60867188 -13.10599609 25.03277344 -13.83447266 25.46972656 C-14.88924805 26.08267578 -14.88924805 26.08267578 -15.96533203 26.70800781 C-17.33265315 27.50507786 -18.69533164 28.3101773 -20.05273438 29.12402344 C-21.62809118 30.05997807 -23.23084977 30.94955043 -24.83837891 31.82910156 C-27.20277551 33.12195207 -27.20277551 33.12195207 -27.89697266 36.21972656 C-28.20885036 40.52719191 -28.22082409 44.83982241 -28.27197266 49.15722656 C-28.30935547 50.35025391 -28.34673828 51.54328125 -28.38525391 52.77246094 C-28.39685547 53.91908203 -28.40845703 55.06570313 -28.42041016 56.24707031 C-28.44022949 57.29628662 -28.46004883 58.34550293 -28.48046875 59.42651367 C-27.54029223 63.9271662 -24.41014422 65.22739804 -20.75634766 67.62353516 C-18.48041534 68.96644059 -16.19298708 70.28644561 -13.89697266 71.59472656 C-12.70587891 72.30822266 -12.70587891 72.30822266 -11.49072266 73.03613281 C-7.20760704 75.61909236 -7.20760704 75.61909236 -2.41259766 75.84863281 C-1.58244141 75.31109375 -0.75228516 74.77355469 0.10302734 74.21972656 C1.56618658 73.38702298 3.02977618 72.5550754 4.49365234 71.72363281 C6.11596402 70.74733939 7.73569444 69.76674588 9.35302734 68.78222656 C10.18060547 68.29173828 11.00818359 67.80125 11.86083984 67.29589844 C12.64716797 66.81830078 13.43349609 66.34070313 14.24365234 65.84863281 C14.96069336 65.41623291 15.67773438 64.98383301 16.41650391 64.53833008 C18.85220684 62.63398272 19.04450933 60.65749521 19.44213867 57.68286133 C20.92096732 44.03563999 20.92096732 44.03563999 16.15283203 31.83984375 C10.19815292 27.01346996 -2.00841392 18.51357877 -9.61181641 22.98535156 Z M-28.24072266 99.76660156 C-32.83501436 103.50374929 -36.210815 107.44184689 -37.89697266 113.21972656 C-38.40331984 118.27215554 -38.47296134 123.26326086 -38.41845703 128.33740234 C-38.39701907 130.71457948 -38.418314 133.08873548 -38.44384766 135.46582031 C-38.4617433 144.51727275 -38.14806595 151.267422 -32.00244141 158.42675781 C-24.20752856 164.95162376 -18.58666662 166.94217144 -8.33447266 166.69238281 C-0.28889056 165.58611527 4.73531982 159.86216537 10.13427734 154.22753906 C12.06668693 152.25678802 14.07115 150.4535579 16.16552734 148.65722656 C25.16797566 140.86220721 29.25216369 136.12978555 30.30224609 123.89941406 C30.63981008 116.4730063 29.05065782 110.21353677 24.59521484 104.17675781 C20.06639493 99.23718447 14.8950889 95.55312708 8.05371094 95.07714844 C4.16501113 94.97400431 0.29474606 95.04922447 -3.59228516 95.17675781 C-6.45023943 95.26342959 -8.73972186 95.08768699 -11.61181641 94.63769531 C-17.74847432 93.85693146 -23.16693533 96.41790193 -28.24072266 99.76660156 Z M-87.59228516 109.67675781 C-88.47271484 110.21236328 -89.35314453 110.74796875 -90.26025391 111.29980469 C-91.62730469 112.15735352 -91.62730469 112.15735352 -93.02197266 113.03222656 C-94.400625 113.87237305 -94.400625 113.87237305 -95.80712891 114.72949219 C-100.62578104 117.61966417 -100.62578104 117.61966417 -104.89697266 121.21972656 C-106.63400126 130.10586861 -107.26793274 140.43854051 -104.89697266 149.21972656 C-100.97628859 154.58808194 -94.99145932 157.17835439 -88.88989258 159.42724609 C-86.89697266 160.21972656 -86.89697266 160.21972656 -83.89697266 162.21972656 C-79.86381951 162.69778456 -77.68921865 161.84390876 -74.32275391 159.66503906 C-73.49066406 159.13265625 -72.65857422 158.60027344 -71.80126953 158.05175781 C-70.94597656 157.4884375 -70.09068359 156.92511719 -69.20947266 156.34472656 C-68.34257812 155.78914063 -67.47568359 155.23355469 -66.58251953 154.66113281 C-61.99676142 151.74757649 -61.99676142 151.74757649 -57.89697266 148.21972656 C-57.38311959 143.96928138 -57.48013904 139.6851673 -57.45947266 135.40722656 C-57.42660156 134.21806641 -57.39373047 133.02890625 -57.35986328 131.80371094 C-57.22255848 125.11223698 -57.22255848 125.11223698 -59.92041016 119.19238281 C-63.53401329 116.79754084 -67.15197264 114.54273757 -70.95947266 112.46972656 C-71.66652344 112.07140625 -72.37357422 111.67308594 -73.10205078 111.26269531 C-80.20937103 107.11138168 -80.20937103 107.11138168 -87.59228516 109.67675781 Z " fill="#F8F8F8" transform="translate(513.89697265625,275.7802734375)"/>
<path d="M0 0 C1.65 0 3.3 0 5 0 C7.29821086 4.59642173 6.30428322 10.03910561 4.8125 14.75 C1.4759383 20.73280028 -3.0946203 24.81930381 -9.6875 26.8125 C-10.450625 26.874375 -11.21375 26.93625 -12 27 C-12.66 26.34 -13.32 25.68 -14 25 C-13.8984375 23 -13.8984375 23 -13 21 C-11.0390625 19.875 -11.0390625 19.875 -8.625 19 C-4.90488638 17.642825 -2.92880955 16.53314647 -1 13 C-0.42385742 9.73124959 -0.42385742 9.73124959 -0.3125 6.25 C-0.24675781 5.07953125 -0.18101562 3.9090625 -0.11328125 2.703125 C-0.07589844 1.81109375 -0.03851562 0.9190625 0 0 Z " fill="#E6E6E6" transform="translate(518,563)"/>
<path d="M0 0 C3.213524 2.26836988 4.88556749 4.83861519 6.125 8.5 C6.87488738 14.10165872 6.95162458 18.81613512 4.4375 23.9375 C2.07770899 26.55240356 -0.31392994 29.08121161 -2.875 31.5 C-3.865 31.17 -4.855 30.84 -5.875 30.5 C-5.36731681 26.0577721 -3.71678232 23.8746165 -0.875 20.5 C0.33143566 16.88069302 0.44768559 14.30768995 0.125 10.5 C-1.15254554 8.4639118 -2.48199818 6.45890881 -3.875 4.5 C-3.875 3.18 -3.875 1.86 -3.875 0.5 C-1.875 -0.5 -1.875 -0.5 0 0 Z " fill="#ECECEC" transform="translate(573.875,520.5)"/>
<path d="M0 0 C1.67542976 0.28604898 3.34385343 0.61781233 5 1 C6.77525309 6.11690596 7.37459108 9.59982074 6 15 C4.81520641 17.17771778 3.50290774 19.01228331 2 21 C0.0625 20.6875 0.0625 20.6875 -2 20 C-2.33 19.01 -2.66 18.02 -3 17 C-2.525625 16.4225 -2.05125 15.845 -1.5625 15.25 C0.63733632 12.08223569 0.26573497 9.78672334 0 6 C-0.32635698 4.33195323 -0.65725594 2.66475686 -1 1 C-0.67 0.67 -0.34 0.34 0 0 Z " fill="#DBDBDB" transform="translate(566,525)"/>
<path d="M0 0 C1.67542976 0.28604898 3.34385343 0.61781233 5 1 C4.74579557 6.83399158 4.38636822 10.74264261 0 15 C-3.22791555 17.1519437 -4.28400809 17.20086443 -8 17 C-8.33 15.68 -8.66 14.36 -9 13 C-8.50628906 12.72027344 -8.01257813 12.44054687 -7.50390625 12.15234375 C-2.92545886 9.30203144 -2.92545886 9.30203144 -1.125 4.25 C-1.08375 3.1775 -1.0425 2.105 -1 1 C-0.67 0.67 -0.34 0.34 0 0 Z " fill="#E2E2E2" transform="translate(512,565)"/>
<path d="M0 0 C0.66 0 1.32 0 2 0 C2 3.96 2 7.92 2 12 C1.34 12 0.68 12 0 12 C-0.38897161 10.37828761 -0.76078298 8.75245075 -1.125 7.125 C-1.43824219 5.76761719 -1.43824219 5.76761719 -1.7578125 4.3828125 C-1.83773438 3.59648438 -1.91765625 2.81015625 -2 2 C-1.34 1.34 -0.68 0.68 0 0 Z " fill="#EEEEEE" transform="translate(478,511)"/>
</svg>
