<svg id="svg" version="1.1" viewBox="0 0 300 300" width="300" height="300" xmlns="http://www.w3.org/2000/svg"><svg xmlns="http://www.w3.org/2000/svg"><defs><clipPath id="clip-1"><rect x="0" y="0" transform="scale(0.14648,0.14648)" width="2048" height="2048" fill="none"/></clipPath><linearGradient x1="158.48145" y1="132.946" x2="152.70117" y2="161.62061" gradientUnits="userSpaceOnUse" id="color-1"><stop offset="0" stop-color="#257dc3"/><stop offset="1" stop-color="#2ac9df"/></linearGradient></defs><g clip-path="url(#clip-1)" fill="none" fill-rule="nonzero" stroke="none" stroke-width="1" stroke-linecap="butt" stroke-linejoin="miter" stroke-miterlimit="10" stroke-dasharray="" stroke-dashoffset="0" font-family="none" font-weight="none" font-size="none" text-anchor="none" style="mix-blend-mode: normal"><path d="M137.14175,88.11548c0.95171,-1.18169 2.38696,-2.13325 3.74194,-2.80107c2.67832,-1.32012 5.59204,-3.77095 8.46885,-4.44697c1.3374,0.37983 10.99219,5.74014 11.79053,7.07637c0.81885,1.3689 0.57715,11.06675 0.33691,13.18652c-0.06885,0.61392 -1.42383,1.99644 -1.94092,2.84824c0.10693,3.39785 2.10645,4.63389 5.04053,5.72622c2.53857,-1.09717 6.38379,-4.29272 8.66016,-2.93584c2.66748,1.59141 8.83008,4.42441 10.69775,6.623c0.18604,1.67915 0.59912,12.82617 -0.28418,13.87793c-1.26709,1.50659 -9.1333,6.39683 -11.4668,7.15254c-0.67383,0.21812 -2.20605,-0.44824 -2.75977,-0.99756l-0.15381,-0.40474c-3.99023,-3.00483 -4.73584,-1.05923 -7.83545,1.92334l-0.16846,-0.05347l-0.08203,-0.43784c-0.62695,-0.76699 -2.89014,-1.58701 -2.97949,-1.69277c1.23486,-1.36172 4.98193,-4.32891 5.53564,-5.60508c2.14453,-2.60889 5.91357,0.53672 7.875,1.60254c1.87061,-0.79878 5.63672,-2.96411 7.12646,-4.32612c0.09668,-1.55771 0.39697,-6.85034 -0.18311,-8.06631c-0.58154,-1.21846 -5.48291,-3.6939 -6.92871,-4.34238c-1.42529,0.71938 -6.77051,3.45996 -6.98877,4.78228c-0.60645,3.68804 0.50391,4.75063 -2.60303,7.75122c-3.27686,3.16304 -6.76318,6.23716 -10.12207,9.36987l-4.44141,4.16338c-0.56543,0.53335 -1.68662,1.65835 -2.27095,2.07422c-0.10049,-0.10796 -0.02856,-0.04863 -0.25005,-0.1251l-0.55679,0.52017c-0.48384,-0.69697 -2.10542,-1.30811 -3.19907,-2.03174l-0.01567,0.00937l0.33765,-0.59956l-0.16069,-0.08335c0.78281,-3.01743 -1.49136,-5.56333 -3.84697,-7.05674c-3.07017,-1.94634 -7.41387,2.89233 -10.77026,3.7519c-2.19082,-0.52529 -10.89067,-5.43765 -12.07148,-7.27822c-0.31025,-0.48354 -0.4021,-1.09292 -0.44868,-1.65469c-0.14429,-1.73657 0.03662,-3.58652 0.05435,-5.33613c0.02007,-1.97461 -0.32197,-4.23179 0.11616,-6.16157c0.28301,-1.24688 1.25596,-1.90635 2.29526,-2.54443c1.65088,-1.01338 8.24136,-5.09795 9.86704,-5.13545c0.83452,-0.01934 1.78213,0.44868 2.48877,0.85342c1.69893,0.9731 3.25532,2.11318 5.18071,2.57256c1.49004,-0.36855 2.33452,-1.1291 3.41133,-2.18013c0.83218,-0.88433 1.60928,-1.91396 1.57017,-3.17827c-0.0397,-1.28525 -0.98115,-1.47817 -1.58408,-2.43252c-0.25312,-0.31025 -0.52529,-0.65522 -0.55737,-1.09966c-0.28403,-3.92681 -0.1166,-8.1728 -0.03911,-12.12437c0.00322,-0.16348 0.08628,-0.58975 0.11396,-0.73301zM142.15312,91.02979c-0.08672,2.13398 -0.11177,6.25547 0.06226,8.3625c1.50146,1.00518 5.5522,3.46816 7.16938,4.01602c0.2915,-0.16582 1.50732,-0.87158 1.76221,-0.94687c0.87158,-0.72788 3.91113,-2.48467 5.0918,-3.2373c-0.54492,-9.73726 2.36279,-7.54189 -7.01514,-12.50054c-1.75781,0.7311 -5.77925,2.99854 -7.07051,4.3062zM146.95752,108.29956c-2.1416,0.12773 -4.59316,1.29434 -6.0252,2.88179c-0.75498,0.82148 -1.30137,1.8123 -1.59331,2.88896c-0.48413,1.81143 -0.18677,6.85898 -0.13052,9.02739c0.13228,5.10264 7.771,9.21284 11.84033,5.31665c1.27588,-1.13965 2.58838,-2.31167 3.83789,-3.44502c2.56934,-2.32881 4.45166,-3.52954 4.55273,-7.33638c0.06592,-2.4709 0.0835,-4.41812 -1.75049,-6.45322c-1.22461,-1.38867 -3.34717,-2.69253 -5.22803,-2.87402c-0.88184,-0.08496 -2.22803,0.51914 -3.13184,0.49761c-0.68848,-0.01655 -1.71387,-0.50479 -2.37158,-0.50376zM119.55249,116.17852c-0.01963,1.27163 -0.28755,7.85713 0.37163,8.5021c0.80273,0.7856 5.90229,3.88711 7.00342,3.95537c1.34385,-0.78398 5.94404,-3.30513 6.86675,-4.29126c0.09814,-1.50249 0.44648,-7.96611 -0.53892,-8.58677c-0.6561,-0.41323 -5.82378,-3.54229 -6.68555,-3.72026c-1.25142,0.51973 -5.98096,3.30527 -7.01733,4.14082z" fill="#1c5aab"/><path d="M137.14175,88.11548c0.95171,-1.18169 2.38696,-2.13325 3.74194,-2.80107c2.67832,-1.32012 5.59204,-3.77095 8.46885,-4.44697c1.3374,0.37983 10.99219,5.74014 11.79053,7.07637c0.81885,1.3689 0.57715,11.06675 0.33691,13.18652c-0.06885,0.61392 -1.42383,1.99644 -1.94092,2.84824l-0.13477,-0.16934c0.33984,-1.07065 1.64941,-1.85361 1.91455,-3.3728c0.19775,-1.12764 0.44824,-3.04058 -0.14941,-4.03594c-0.72803,0.31992 -2.5957,-0.86294 -4.05469,-0.69624c-0.78223,0.83496 -0.6665,2.54692 -0.70166,3.71558c-1.07959,0.76963 -4.10596,2.83081 -5.26611,3.0416c0.87158,-0.72788 3.91113,-2.48467 5.0918,-3.2373c-0.54492,-9.73726 2.36279,-7.54189 -7.01514,-12.50054c-1.75781,0.7311 -5.77925,2.99854 -7.07051,4.3062c-0.08672,2.13398 -0.11177,6.25547 0.06226,8.3625l-0.25107,-0.07148c-0.20742,-0.59766 0.13813,-7.1187 -0.12744,-7.8936c-1.1313,1.62964 -2.37495,0.35933 -3.48677,1.74375c-0.23218,1.50073 0.33311,5.22437 -0.16509,6.08394l-0.16494,-0.06533c-0.07368,-0.64248 0.0709,-1.8063 -0.14062,-2.13794c-0.47036,0.09844 -0.29136,0.14648 -0.67544,0.02329c-0.06855,1.2167 0.03779,3.4229 0.37485,4.60444c0.07061,0.24756 0.04761,0.08364 0.04541,0.39316c-0.25312,-0.31025 -0.52529,-0.65522 -0.55737,-1.09966c-0.28403,-3.92681 -0.1166,-8.1728 -0.03911,-12.12437c0.00322,-0.16348 0.08628,-0.58975 0.11396,-0.73301z" fill="#0c1b7a"/><path d="M183.55957,177.90381c1.6626,-0.01904 3.3252,-0.00439 4.98633,0.04102c0.12158,3.22119 -0.01758,6.52881 0.03955,9.75879c0.03223,1.80322 0.00439,3.8042 -0.22705,5.58545c2.56787,-2.52246 5.94287,-5.72461 8.61475,-8.10791c2.07861,-0.01758 4.15576,-0.01611 6.23438,0.00732c-2.05811,2.37891 -5.45947,5.62646 -7.74316,7.8457c1.80762,2.51514 3.70752,5.0376 5.54736,7.53369c0.9126,1.30371 1.83838,2.59717 2.77881,3.87891c-2.05957,0.0542 -4.11914,0.06006 -6.17871,0.02051c-2.06836,-2.65137 -4.0752,-5.44189 -6.13623,-8.12549c-0.97852,1.00928 -1.96729,2.01123 -2.96338,3.00439l-0.02197,5.12988c-1.76807,0.0249 -3.59912,-0.00439 -5.37305,-0.01172c0.0791,-6.13623 0.09082,-12.27393 0.03809,-18.41162c-0.00439,-1.21582 -0.15234,-7.26562 0.05273,-7.95996z" fill="#112f58"/><path d="M166.5293,184.92773c2.79346,0.01172 5.68799,0.15234 7.84424,2.24268c2.85938,2.77148 2.18701,7.16455 2.22656,10.77393c0.0249,2.17236 0.03223,4.35498 0.05713,6.53174l-5.23828,0.00439l-0.02197,-2.18848c-3.28271,3.14648 -8.521,3.46143 -11.7876,0.15088c-0.80273,-1.02539 -1.35645,-2.12549 -1.33154,-3.44824c0.13477,-6.86279 8.43896,-5.93555 12.87012,-5.89746c-0.30908,-5.77002 -6.89502,-3.97705 -10.15723,-2.00537c-0.60645,-1.23193 -1.16602,-2.55908 -1.72119,-3.82031c2.2749,-1.59961 4.58936,-1.98926 7.25977,-2.34375zM168.54932,200.68506c2.48145,-1.03564 2.57813,-2.01123 2.64258,-4.50146c-1.57178,0.07617 -3.15967,0.04102 -4.73291,0.0249c-4.75195,0.49951 -3.80566,5.64697 2.09033,4.47656z" fill="#112f58"/><path d="M126.97412,184.93652l0.15527,0.00146c2.84121,0.06152 5.32676,0.71191 7.29771,2.84033c2.56655,2.77295 2.65093,5.06104 2.55776,8.5415c-4.92788,-0.03516 -9.85591,-0.04395 -14.78379,-0.02783c1.83047,5.23389 6.78369,5.05518 10.68823,2.18701l1.09307,1.06787l1.74521,1.75635c-1.6853,2.00098 -3.46187,3.04541 -6.08906,3.34717c-3.12598,0.36035 -6.41953,-0.1084 -8.93979,-2.09766c-2.08418,-1.64648 -3.40767,-4.07227 -3.66562,-6.71631c-0.51958,-4.87207 2.27886,-9.05859 6.98701,-10.44287c0.96123,-0.28271 1.95908,-0.35449 2.954,-0.45703zM122.3146,193.18359c1.86782,0.01904 3.73579,0.02637 5.60376,0.02197l4.01191,-0.00586c-0.72349,-2.98975 -2.26216,-4.43262 -5.46152,-4.0752c-2.47925,0.54346 -3.50933,1.63916 -4.15415,4.05908z" fill="#112f58"/><path d="M124.07065,187.57031c0.97822,-0.20068 3.90864,-0.03955 4.89448,0.12305l0.03472,0.24756c-1.33521,0.07324 -3.9668,0.41309 -4.9292,-0.37061z" fill="#0c1b7a"/><path d="M148.44873,161.10059c-3.64307,-3.44385 -5.19727,-7.28613 -4.48975,-12.27979c0.67031,-4.73101 4.18945,-7.45386 7.48242,-10.45239l6.77344,-6.16538c1.44873,-1.31748 4.15137,-4.03506 5.52832,-5.04873c-0.55371,1.27617 -4.30078,4.24336 -5.53564,5.60508c0.08936,0.10576 2.35254,0.92578 2.97949,1.69277l0.08203,0.43784l0.16846,0.05347c3.09961,-2.98257 3.84521,-4.92817 7.83545,-1.92334l0.15381,0.40474c-2.42578,-1.57163 -3.5874,-2.70601 -5.90186,-0.07588c-2.92676,3.32651 -8.19141,6.05977 -9.14209,10.67476c-0.45264,2.27285 0.03955,4.63154 1.36377,6.53438c1.07227,1.53223 2.94727,3.07324 4.80469,3.51416c1.27588,0.30322 4.08984,0.33105 4.56738,1.82227c0.47461,1.48828 -0.33398,2.1709 -1.49707,2.84619c-2.15771,0.04541 -4.30078,-0.38232 -6.27539,-1.25391c-3.12744,-1.34473 -5.4668,-3.78955 -6.76025,-6.96387c-0.37939,-0.93164 -0.50977,-2.18262 -0.94043,-3.28418l-0.17871,-0.01904c-0.646,0.63428 -1.05322,2.02881 -1.10889,2.86963c-0.21533,3.19336 0.32373,4.88379 2.54883,7.125c0.48926,0.58447 1.04883,1.45313 0.8833,2.24854c-0.41309,1.97168 -1.72119,1.94238 -3.34131,1.6377z" fill="url(#color-1)"/><path d="M96.25107,185.3335c0.93296,-0.05713 1.87983,-0.06152 2.81455,-0.04541c4.6437,0.0791 9.2814,-0.09668 13.92407,-0.04687c0.02959,1.00342 -0.01245,2.18262 -0.02373,3.19922c-1.05322,1.31396 -3.97075,5.0625 -5.16973,6.11426c-0.64438,0.92139 -1.38296,1.7417 -2.11787,2.59131c-0.25063,0.43213 -2.13413,2.59131 -2.55688,3.08936c3.44824,-0.06299 6.86602,0.03809 10.34604,-0.06885c0.06973,1.43408 0.03911,2.89453 0.02842,4.33154l-17.40732,-0.02344l0.09668,-3.30322c0.78501,-1.14551 2.68901,-3.16406 3.66182,-4.29932c2.04609,-2.40381 4.06187,-4.83252 6.04717,-7.28613c-2.42417,-0.18896 -7.13701,-0.05859 -9.63999,-0.04541z" fill="#112f58"/><path d="M105.31919,194.17383c1.21567,0.63135 1.24834,1.09131 2.47705,0.38086c-0.64438,0.92139 -1.38296,1.7417 -2.11787,2.59131c0.32856,-1.02539 -0.06123,-1.9248 -0.35918,-2.97217z" fill="#0c1b7a"/><path d="M141.36196,137.85278l0.16069,0.08335l-0.33765,0.59956l0.01567,-0.00937c1.09365,0.72363 2.71523,1.33477 3.19907,2.03174l0.55679,-0.52017c0.22148,0.07646 0.14956,0.01714 0.25005,0.1251c-0.52661,0.8168 -1.57427,1.80571 -2.18569,2.76753c-3.45381,5.52554 -3.52808,11.79946 0.14385,17.2355c0.98892,1.46338 5.53887,4.979 5.48467,6.0293c-0.25635,4.86475 -5.33979,1.07373 -7.06304,-0.81299c-3.5811,-3.92139 -5.61958,-8.72168 -5.64272,-14.06836c0.01992,-4.40186 2.22202,-10.41914 5.41831,-13.46118z" fill="#2dc5dc"/><path d="M152.98535,184.92627l1.74902,0.03662c0.11133,1.62012 0.07178,3.22705 0.05859,4.8501c-7.53223,-1.00049 -7.08984,4.62891 -7.00781,9.85693c0.03516,1.61279 0.0293,3.22559 -0.01758,4.83838c-0.97998,-0.01904 -4.60562,0.14648 -5.21968,-0.18604l-0.03765,-0.37939c-0.13052,-6.1084 -0.06855,-12.65625 -0.00601,-18.76611h5.15347c0.03662,0.85254 0.05713,1.70508 0.05859,2.55908c1.84717,-1.83545 2.76563,-2.27783 5.26904,-2.80957z" fill="#112f58"/><path d="M168.56104,155.8667c-0.5083,-0.94043 -1.2085,-1.80908 -1.19092,-2.80664l0.17725,-0.13477c0.98877,0.54053 1.47217,1.53662 1.78125,2.57666c0.04395,0.15234 0.08643,0.30469 0.12744,0.4585c0.04395,0.99609 0.1084,1.96289 -0.27539,2.91064c-0.31494,0.78223 -1.69922,2.67188 -2.66602,2.3042c-0.12012,-0.56543 1.93506,-2.34521 2.02881,-3.44092c0.06445,-0.74854 0.07617,-1.10889 0.01758,-1.86768z" fill="#2dc5dc"/><path d="M152.08301,165.15674l0.46729,0.10693c0.14795,0.14209 0.29883,0.29297 0.34424,0.49805c0.72363,3.30322 -1.21289,5.7627 -4.17773,6.6416l-0.33252,-0.01465l-0.18896,-0.25488c0.271,-1.35205 2.29102,-0.87891 3.36914,-2.80957c0.95508,-1.71094 0.01758,-3.22852 0.51855,-4.16748z" fill="#2dc5dc"/><path d="M165.83203,154.18506l0.64014,0.05859c1.72266,1.23926 1.07959,4.3916 -0.66357,5.45947l-0.42187,-0.43213c-0.01025,-0.73682 0.85254,-1.12939 1.09424,-2.00098c0.39551,-1.42822 -1.07666,-1.80615 -0.64893,-3.08496z" fill="#2dc5dc"/><path d="M150.21533,165.74268c1.54688,0.43359 0.68555,2.55908 0.21533,3.50391c-0.92139,0.58887 -1.25684,0.73682 -2.26465,1.11182l-0.3208,-0.09521c-0.38232,-0.82178 1.61865,-1.35645 1.93652,-2.02881c0.38232,-0.81152 0.02051,-1.55859 0.43359,-2.4917z" fill="#2dc5dc"/></g></svg></svg>